<?xml version="1.0" encoding="utf-8"?>
<!-- Generator: Adobe Illustrator 22.0.1, SVG Export Plug-In . SVG Version: 6.00 Build 0)  -->
<svg version="1.1" id="레이어_1" xmlns="http://www.w3.org/2000/svg" xmlns:xlink="http://www.w3.org/1999/xlink" x="0px"
	 y="0px" viewBox="0 0 36 36" enable-background="new 0 0 36 36" xml:space="preserve">
<title>3E758670-1D77-4ACA-9044-F7B7B1CA25E7</title>
<g>
	<path d="M23.5,16.2L23.5,16.2l-0.1-3c0-3.1-2.5-5.7-5.7-5.7c-3.1,0-5.7,2.5-5.7,5.7v3h-0.1c-1.3,0-2.4,1.1-2.4,2.4v10.3h16.2V18.5
		C25.9,17.2,24.8,16.2,23.5,16.2z M13.6,13.2c0-2.3,1.9-4.2,4.2-4.2c2.3,0,4.2,1.9,4.2,4.2v2.8h-8.4V13.2z M24.4,27.3H11.2v-8.8
		c0-0.5,0.4-0.9,0.9-0.9h11.5c0.5,0,0.9,0.4,0.9,0.9V27.3z"/>
	<path d="M19.1,22.6c0-0.7-0.6-1.3-1.3-1.3s-1.3,0.6-1.3,1.3c0,0.5,0.3,0.9,0.7,1.1v1.2c0,0.1,0.1,0.2,0.2,0.2h0.8
		c0.1,0,0.2-0.1,0.2-0.2v-1.2C18.8,23.5,19.1,23.1,19.1,22.6z"/>
</g>
</svg>
