<?xml version="1.0" encoding="utf-8"?>
<!-- Generator: Adobe Illustrator 23.0.0, SVG Export Plug-In . SVG Version: 6.00 Build 0)  -->
<svg version="1.1" id="Layer_1" focusable="false" xmlns="http://www.w3.org/2000/svg" xmlns:xlink="http://www.w3.org/1999/xlink"
	 x="0px" y="0px" viewBox="0 0 448 512" enable-background="new 0 0 448 512" xml:space="preserve">
<g>
	<path d="M97.8,185.1c-8.5,0-15.4,6.9-15.4,15.4c0,8.5,6.9,15.4,15.4,15.4c8.5,0,15.4-6.9,15.4-15.4
		C113.2,192,106.3,185.1,97.8,185.1z"/>
	<path d="M250.1,183.5c-9.2,0-16.6,7.4-16.6,16.6c0,9.2,7.4,16.6,16.6,16.6c9.2,0,16.6-7.4,16.6-16.6
		C266.7,190.9,259.3,183.5,250.1,183.5z"/>
	<path d="M388,31.8H60c-33.1,0-59.9,26.8-59.9,59.9v194.7c0,33.1,26.8,59.9,59.9,59.9h115.9l39.4,92.8c0,0,2.7,8,9.3,8l0,0
		c6.6,0,9.3-8,9.3-8l39.4-92.8H388c33.1,0,59.9-26.8,59.9-59.9V91.7C447.9,58.6,421.1,31.8,388,31.8z M140.8,203.9
		c-0.2,35.6-37,36.6-37,36.6c-14.2,0-22.3-9.4-22.3-9.4v6.4H54.7V127c-0.1,0-0.1,0,0-0.1v0.1c1.7,0.3,26.8-0.1,26.8-0.1v42.3
		c6.3-10.7,24.5-10.6,24.5-10.6C145.7,162.3,140.8,203.9,140.8,203.9z M188,162v75.7h-26.2v-74.9c0-10.2-12.6-13-12.6-13v-26.4
		C191,125,188,162,188,162z M250.1,240.6c-24.3,0-44-18.1-44-40.5c0-22.4,19.7-40.5,44-40.5c24.3,0,44,18.1,44,40.5
		C294.1,222.4,274.4,240.6,250.1,240.6z M393.8,240.6c0,0,0.4,38.4-38.7,38.4h-11.9v-24.9h7.2c0,0,16.4,1.5,16.2-23.8
		c0,0-3.2,10.2-26.2,10.2c0,0-32.6-2.4-32.6-34.2v-12.1c0,0,0.8-33,36.6-35.7c0,0,14.1-1.5,22.8,10.2v-8.1h26.6V240.6z"/>
	<path d="M352.1,183.9c-9,0-16.2,7.3-16.2,16.2c0,9,7.3,16.2,16.2,16.2c9,0,16.2-7.3,16.2-16.2C368.3,191.1,361.1,183.9,352.1,183.9
		z"/>
</g>
</svg>
